<mxfile host="app.diagrams.net" agent="Mozilla/5.0 (Windows NT 10.0; Win64; x64) AppleWebKit/537.36 (KHTML, like Gecko) Chrome/127.0.0.0 Safari/537.36 Edg/127.0.0.0" version="24.7.6">
  <diagram id="C5RBs43oDa-KdzZeNtuy" name="Page-1">
    <mxGraphModel dx="1895" dy="2214" grid="1" gridSize="10" guides="1" tooltips="1" connect="1" arrows="1" fold="1" page="1" pageScale="1" pageWidth="827" pageHeight="1169" math="0" shadow="0">
      <root>
        <mxCell id="WIyWlLk6GJQsqaUBKTNV-0" />
        <mxCell id="WIyWlLk6GJQsqaUBKTNV-1" parent="WIyWlLk6GJQsqaUBKTNV-0" />
        <mxCell id="-EZe4vIISqpXjpl0UJGr-61" style="edgeStyle=orthogonalEdgeStyle;rounded=0;orthogonalLoop=1;jettySize=auto;html=1;entryX=0.5;entryY=0;entryDx=0;entryDy=0;" parent="WIyWlLk6GJQsqaUBKTNV-1" source="BXrO7vNdJajt_8QWYBt8-1" target="-EZe4vIISqpXjpl0UJGr-5" edge="1">
          <mxGeometry relative="1" as="geometry">
            <mxPoint x="510" y="-330" as="sourcePoint" />
          </mxGeometry>
        </mxCell>
        <mxCell id="-EZe4vIISqpXjpl0UJGr-19" style="edgeStyle=orthogonalEdgeStyle;rounded=0;orthogonalLoop=1;jettySize=auto;html=1;entryX=1;entryY=0.5;entryDx=0;entryDy=0;" parent="WIyWlLk6GJQsqaUBKTNV-1" source="-EZe4vIISqpXjpl0UJGr-5" target="-EZe4vIISqpXjpl0UJGr-18" edge="1">
          <mxGeometry relative="1" as="geometry">
            <mxPoint x="320" y="60" as="targetPoint" />
          </mxGeometry>
        </mxCell>
        <mxCell id="-EZe4vIISqpXjpl0UJGr-63" style="edgeStyle=orthogonalEdgeStyle;rounded=0;orthogonalLoop=1;jettySize=auto;html=1;entryX=0;entryY=0.5;entryDx=0;entryDy=0;" parent="WIyWlLk6GJQsqaUBKTNV-1" source="-EZe4vIISqpXjpl0UJGr-5" target="-EZe4vIISqpXjpl0UJGr-22" edge="1">
          <mxGeometry relative="1" as="geometry" />
        </mxCell>
        <mxCell id="-EZe4vIISqpXjpl0UJGr-5" value="Feed" style="rounded=1;whiteSpace=wrap;html=1;fillColor=#82B366;strokeColor=#82b366;" parent="WIyWlLk6GJQsqaUBKTNV-1" vertex="1">
          <mxGeometry x="450" y="-210" width="120" height="60" as="geometry" />
        </mxCell>
        <mxCell id="-EZe4vIISqpXjpl0UJGr-18" value="ConteudoPost" style="rounded=1;whiteSpace=wrap;html=1;fillColor=#82B366;strokeColor=#82b366;" parent="WIyWlLk6GJQsqaUBKTNV-1" vertex="1">
          <mxGeometry x="260" y="-210" width="120" height="60" as="geometry" />
        </mxCell>
        <mxCell id="-EZe4vIISqpXjpl0UJGr-31" style="edgeStyle=orthogonalEdgeStyle;rounded=0;orthogonalLoop=1;jettySize=auto;html=1;" parent="WIyWlLk6GJQsqaUBKTNV-1" source="-EZe4vIISqpXjpl0UJGr-22" target="-EZe4vIISqpXjpl0UJGr-27" edge="1">
          <mxGeometry relative="1" as="geometry" />
        </mxCell>
        <mxCell id="-EZe4vIISqpXjpl0UJGr-22" value="Login" style="rounded=1;whiteSpace=wrap;html=1;fillColor=#ffe6cc;strokeColor=#d79b00;" parent="WIyWlLk6GJQsqaUBKTNV-1" vertex="1">
          <mxGeometry x="680" y="-210" width="120" height="60" as="geometry" />
        </mxCell>
        <mxCell id="-EZe4vIISqpXjpl0UJGr-30" style="edgeStyle=orthogonalEdgeStyle;rounded=0;orthogonalLoop=1;jettySize=auto;html=1;entryX=0.5;entryY=1;entryDx=0;entryDy=0;" parent="WIyWlLk6GJQsqaUBKTNV-1" source="-EZe4vIISqpXjpl0UJGr-27" target="-EZe4vIISqpXjpl0UJGr-5" edge="1">
          <mxGeometry relative="1" as="geometry">
            <mxPoint x="360" y="-30" as="targetPoint" />
          </mxGeometry>
        </mxCell>
        <mxCell id="-EZe4vIISqpXjpl0UJGr-62" style="edgeStyle=orthogonalEdgeStyle;rounded=0;orthogonalLoop=1;jettySize=auto;html=1;entryX=0;entryY=0.5;entryDx=0;entryDy=0;" parent="WIyWlLk6GJQsqaUBKTNV-1" source="-EZe4vIISqpXjpl0UJGr-27" target="-EZe4vIISqpXjpl0UJGr-32" edge="1">
          <mxGeometry relative="1" as="geometry" />
        </mxCell>
        <mxCell id="-EZe4vIISqpXjpl0UJGr-27" value="E Professor?" style="rhombus;whiteSpace=wrap;html=1;fillColor=#e1d5e7;strokeColor=#9673a6;" parent="WIyWlLk6GJQsqaUBKTNV-1" vertex="1">
          <mxGeometry x="700" y="-60" width="80" height="80" as="geometry" />
        </mxCell>
        <mxCell id="-EZe4vIISqpXjpl0UJGr-40" style="edgeStyle=orthogonalEdgeStyle;rounded=0;orthogonalLoop=1;jettySize=auto;html=1;entryX=0;entryY=0.5;entryDx=0;entryDy=0;" parent="WIyWlLk6GJQsqaUBKTNV-1" source="-EZe4vIISqpXjpl0UJGr-32" target="-EZe4vIISqpXjpl0UJGr-64" edge="1">
          <mxGeometry relative="1" as="geometry" />
        </mxCell>
        <mxCell id="-EZe4vIISqpXjpl0UJGr-32" value="Autenticacao" style="rounded=1;whiteSpace=wrap;html=1;fillColor=#ffe6cc;strokeColor=#d79b00;" parent="WIyWlLk6GJQsqaUBKTNV-1" vertex="1">
          <mxGeometry x="880" y="-50" width="120" height="60" as="geometry" />
        </mxCell>
        <mxCell id="-EZe4vIISqpXjpl0UJGr-36" value="&lt;b&gt;Nao&lt;/b&gt;" style="text;html=1;align=center;verticalAlign=middle;resizable=0;points=[];autosize=1;strokeColor=none;fillColor=none;" parent="WIyWlLk6GJQsqaUBKTNV-1" vertex="1">
          <mxGeometry x="570" y="-45" width="50" height="30" as="geometry" />
        </mxCell>
        <mxCell id="-EZe4vIISqpXjpl0UJGr-37" value="&lt;b&gt;Sim&lt;/b&gt;" style="text;html=1;align=center;verticalAlign=middle;resizable=0;points=[];autosize=1;strokeColor=none;fillColor=none;" parent="WIyWlLk6GJQsqaUBKTNV-1" vertex="1">
          <mxGeometry x="800" y="-45" width="50" height="30" as="geometry" />
        </mxCell>
        <mxCell id="-EZe4vIISqpXjpl0UJGr-41" value="Criar Post" style="rounded=1;whiteSpace=wrap;html=1;fillColor=#dae8fc;strokeColor=#6c8ebf;" parent="WIyWlLk6GJQsqaUBKTNV-1" vertex="1">
          <mxGeometry x="1100" y="110" width="120" height="60" as="geometry" />
        </mxCell>
        <mxCell id="XsJVzCg-bZU4NSeLenqj-5" style="edgeStyle=orthogonalEdgeStyle;rounded=0;orthogonalLoop=1;jettySize=auto;html=1;entryX=0.5;entryY=0;entryDx=0;entryDy=0;" edge="1" parent="WIyWlLk6GJQsqaUBKTNV-1" source="-EZe4vIISqpXjpl0UJGr-45" target="-EZe4vIISqpXjpl0UJGr-64">
          <mxGeometry relative="1" as="geometry" />
        </mxCell>
        <mxCell id="-EZe4vIISqpXjpl0UJGr-45" value="Editar Post" style="rounded=1;whiteSpace=wrap;html=1;fillColor=#dae8fc;strokeColor=#6c8ebf;" parent="WIyWlLk6GJQsqaUBKTNV-1" vertex="1">
          <mxGeometry x="1360" y="-210" width="120" height="60" as="geometry" />
        </mxCell>
        <mxCell id="XsJVzCg-bZU4NSeLenqj-6" style="edgeStyle=orthogonalEdgeStyle;rounded=0;orthogonalLoop=1;jettySize=auto;html=1;entryX=1;entryY=0.75;entryDx=0;entryDy=0;" edge="1" parent="WIyWlLk6GJQsqaUBKTNV-1" source="-EZe4vIISqpXjpl0UJGr-47" target="-EZe4vIISqpXjpl0UJGr-64">
          <mxGeometry relative="1" as="geometry" />
        </mxCell>
        <mxCell id="-EZe4vIISqpXjpl0UJGr-47" value="Excluir Post" style="rounded=1;whiteSpace=wrap;html=1;fillColor=#dae8fc;strokeColor=#6c8ebf;" parent="WIyWlLk6GJQsqaUBKTNV-1" vertex="1">
          <mxGeometry x="1360" y="110" width="120" height="60" as="geometry" />
        </mxCell>
        <mxCell id="-EZe4vIISqpXjpl0UJGr-65" style="edgeStyle=orthogonalEdgeStyle;rounded=0;orthogonalLoop=1;jettySize=auto;html=1;entryX=0.5;entryY=0;entryDx=0;entryDy=0;exitX=0.5;exitY=1;exitDx=0;exitDy=0;" parent="WIyWlLk6GJQsqaUBKTNV-1" source="-EZe4vIISqpXjpl0UJGr-64" target="-EZe4vIISqpXjpl0UJGr-41" edge="1">
          <mxGeometry relative="1" as="geometry">
            <mxPoint x="1160" y="120" as="targetPoint" />
          </mxGeometry>
        </mxCell>
        <mxCell id="XsJVzCg-bZU4NSeLenqj-2" style="edgeStyle=orthogonalEdgeStyle;rounded=0;orthogonalLoop=1;jettySize=auto;html=1;entryX=0;entryY=0.5;entryDx=0;entryDy=0;" edge="1" parent="WIyWlLk6GJQsqaUBKTNV-1" source="-EZe4vIISqpXjpl0UJGr-64" target="XsJVzCg-bZU4NSeLenqj-1">
          <mxGeometry relative="1" as="geometry" />
        </mxCell>
        <mxCell id="-EZe4vIISqpXjpl0UJGr-64" value="Feed" style="rounded=1;whiteSpace=wrap;html=1;fillColor=#82B366;strokeColor=#82b366;" parent="WIyWlLk6GJQsqaUBKTNV-1" vertex="1">
          <mxGeometry x="1100" y="-50" width="120" height="60" as="geometry" />
        </mxCell>
        <mxCell id="BXrO7vNdJajt_8QWYBt8-1" value="User" style="shape=umlActor;verticalLabelPosition=bottom;verticalAlign=top;html=1;outlineConnect=0;" parent="WIyWlLk6GJQsqaUBKTNV-1" vertex="1">
          <mxGeometry x="495" y="-400" width="30" height="60" as="geometry" />
        </mxCell>
        <mxCell id="XsJVzCg-bZU4NSeLenqj-3" style="edgeStyle=orthogonalEdgeStyle;rounded=0;orthogonalLoop=1;jettySize=auto;html=1;" edge="1" parent="WIyWlLk6GJQsqaUBKTNV-1" source="XsJVzCg-bZU4NSeLenqj-1" target="-EZe4vIISqpXjpl0UJGr-47">
          <mxGeometry relative="1" as="geometry" />
        </mxCell>
        <mxCell id="XsJVzCg-bZU4NSeLenqj-4" style="edgeStyle=orthogonalEdgeStyle;rounded=0;orthogonalLoop=1;jettySize=auto;html=1;entryX=0.5;entryY=1;entryDx=0;entryDy=0;" edge="1" parent="WIyWlLk6GJQsqaUBKTNV-1" source="XsJVzCg-bZU4NSeLenqj-1" target="-EZe4vIISqpXjpl0UJGr-45">
          <mxGeometry relative="1" as="geometry" />
        </mxCell>
        <mxCell id="XsJVzCg-bZU4NSeLenqj-1" value="ConteudoPost" style="rounded=1;whiteSpace=wrap;html=1;fillColor=#82B366;strokeColor=#82b366;" vertex="1" parent="WIyWlLk6GJQsqaUBKTNV-1">
          <mxGeometry x="1360" y="-50" width="120" height="60" as="geometry" />
        </mxCell>
      </root>
    </mxGraphModel>
  </diagram>
</mxfile>
